<?xml version="1.0" encoding="UTF-8" standalone="no"?>
<!-- Created with Inkscape (http://www.inkscape.org/) -->

<svg
   width="512"
   height="512"
   viewBox="0 0 135.46666 135.46667"
   version="1.1"
   id="svg1"
   xml:space="preserve"
   inkscape:version="1.4.2 (f4327f4, 2025-05-13)"
   sodipodi:docname="finormance.svg"
   xmlns:inkscape="http://www.inkscape.org/namespaces/inkscape"
   xmlns:sodipodi="http://sodipodi.sourceforge.net/DTD/sodipodi-0.dtd"
   xmlns="http://www.w3.org/2000/svg"
   xmlns:svg="http://www.w3.org/2000/svg"><sodipodi:namedview
     id="namedview1"
     pagecolor="#ffffff"
     bordercolor="#000000"
     borderopacity="0.25"
     inkscape:showpageshadow="2"
     inkscape:pageopacity="0.0"
     inkscape:pagecheckerboard="0"
     inkscape:deskcolor="#d1d1d1"
     inkscape:document-units="mm"
     showgrid="false"
     inkscape:zoom="1.3772587"
     inkscape:cx="455.6152"
     inkscape:cy="276.99952"
     inkscape:window-width="1920"
     inkscape:window-height="991"
     inkscape:window-x="-9"
     inkscape:window-y="-9"
     inkscape:window-maximized="1"
     inkscape:current-layer="layer1"><inkscape:grid
       id="grid1"
       units="mm"
       originx="0"
       originy="0"
       spacingx="0.99999995"
       spacingy="1"
       empcolor="#0099e5"
       empopacity="0.30196078"
       color="#0099e5"
       opacity="0.14901961"
       empspacing="5"
       enabled="true"
       visible="false" /></sodipodi:namedview><defs
     id="defs1" /><g
     inkscape:label="Capa 1"
     inkscape:groupmode="layer"
     id="layer1"><rect
       style="fill:#5b109e;fill-opacity:1;stroke:none;stroke-width:3.51149;stroke-linecap:round"
       id="rect1"
       width="135.46666"
       height="135.46666"
       x="3.5603841e-06"
       y="3.5603841e-06" /><circle
       style="fill:none;fill-opacity:1;stroke:#ffffff;stroke-width:4.24088;stroke-linecap:round;stroke-opacity:1"
       id="path1"
       cx="67.73333"
       cy="67.73333"
       r="44.181644" /><path
       id="circle2"
       style="fill:#ffffff;fill-opacity:1;stroke:none;stroke-width:4.7254;stroke-linecap:round;stroke-opacity:1"
       d="m 85.330081,40.330771 c -0.966822,-0.06353 -2.227994,0.862949 -2.96654,1.232219 -1.602769,0.801388 -3.29862,1.434418 -4.921389,2.200721 -1.060575,0.500833 -2.109911,1.063437 -3.240627,1.420508 l 0.960441,2.520292 5.160929,-2.300335 1.320318,-0.580409 c -0.269326,0.682265 -0.78159,1.286281 -1.160245,1.920305 -0.909293,1.522529 -1.834732,3.046215 -2.760404,4.56094 -2.412883,3.948385 -4.672628,8.008752 -7.201575,11.882861 -0.889903,1.363259 -1.703714,2.799455 -2.540446,4.200488 -0.188316,0.31533 -0.608647,1.393212 -0.980595,1.480392 -0.187748,0.04401 -0.346795,-0.141712 -0.479645,-0.240111 -0.414317,-0.306914 -0.796914,-0.640323 -1.20055,-0.959865 -1.342897,-1.063129 -2.710105,-2.113049 -4.08072,-3.141008 -0.540438,-0.405332 -1.118093,-0.853227 -1.800539,-0.439914 -0.654071,0.396127 -1.133848,1.381239 -1.600158,1.980764 -0.997663,1.282704 -1.992705,2.567597 -3.000513,3.840611 -3.119344,3.94023 -6.196044,7.914677 -9.281956,11.882284 -1.083492,1.393054 -2.084442,2.902015 -3.280929,4.201064 v 0.119765 l 1.920305,1.560428 h 0.120342 l 3.760575,-4.80105 5.521382,-7.081234 4.200486,-5.401038 2.480563,-3.240623 h 0.120342 c 0.420684,0.592786 1.218398,1.027037 1.800537,1.479815 1.169075,0.909279 2.303958,1.862048 3.480734,2.760979 0.520715,0.397773 1.187485,1.15284 1.920305,1.00017 0.728915,-0.151855 1.019395,-0.950298 1.360049,-1.520698 0.956661,-1.601845 1.908053,-3.208798 2.880747,-4.800475 2.610532,-4.271801 5.191926,-8.572416 7.801562,-12.842725 0.957852,-1.567399 1.940262,-3.106508 2.880744,-4.681284 0.464931,-0.778471 1.069645,-1.562707 1.400353,-2.400525 l 0.240109,1.680194 0.35988,5.521382 2.520297,-0.119766 c 0,-3.152541 -0.295833,-6.353896 -0.59999,-9.482335 -0.09034,-0.929164 0.32292,-2.865166 -0.720327,-3.320659 -0.123719,-0.05402 -0.255732,-0.08305 -0.393855,-0.09212 z m -8.0077,23.336746 v 29.046418 h 8.401554 L 85.60417,90.193642 v -4.441175 -14.76303 -5.521382 l -0.0403,-1.740079 -0.559686,-0.06046 h -1.560435 z m -13.442713,13.92351 v 10.681734 3.001089 l 0.119766,1.559852 3.000513,-0.119766 h 3.240623 l 2.040648,0.119766 V 77.591027 Z m -13.443288,8.16144 v 5.041162 l 0.06046,1.900152 1.980189,0.02016 h 6.36148 l 0.119766,-4.201064 v -2.640635 l -2.640637,-0.119766 z"
       sodipodi:nodetypes="sssccccscssscsssssscccccccccsssssssccccssssccccccccccccccccccccccccccccc" /></g></svg>
